<svg xmlns="http://www.w3.org/2000/svg" xmlns:xlink="http://www.w3.org/1999/xlink" viewBox="0 0 698.4 684.2"><g transform="matrix(.25 0 0 .25 220.2 210.91)"><g id="a"><path fill="#f2f2f2" d="M512 412.4v128l-121.7-39.6v-128z"/><path fill="none" stroke="#47589c" stroke-width="32" d="M496.8 407.4a112 112 0 0 1-106.5 77.4"/><path fill="#1a203b" d="M481.6 530.5a32 32 0 0 1 30.4-22.1v32z"/><path fill="none" stroke="#e1e1e1" stroke-linejoin="round" stroke-width="4" d="M512 412.4v128l-121.7-39.6v-128z"/></g><g id="b"><path fill="#f2f2f2" d="m512 412.4-121.7-39.6L512 333.3l121.7 39.6z"/><path fill="#47589c" d="M481.6 402.5a32 32 0 0 1 60.9 0l-30.4 10z"/><path fill="#1a203b" d="M542.4 343a32 32 0 0 1-60.9 0l30.4-10z"/><path fill="none" stroke="#e1e1e1" stroke-linejoin="round" stroke-width="4" d="m512 412.4-121.7-39.6L512 333.3l121.7 39.6z"/></g><use xlink:href="#a" width="1024" height="1024" transform="rotate(72 512 540.4)"/><use xlink:href="#a" width="1024" height="1024" transform="rotate(144 512 540.4)"/><use xlink:href="#a" width="1024" height="1024" transform="rotate(216 512 540.4)"/><use xlink:href="#a" width="1024" height="1024" transform="rotate(288 512 540.4)"/><use xlink:href="#b" width="1024" height="1024" transform="rotate(72 512 540.4)"/><use xlink:href="#b" width="1024" height="1024" transform="rotate(144 512 540.4)"/><use xlink:href="#b" width="1024" height="1024" transform="rotate(216 512 540.4)"/><use xlink:href="#b" width="1024" height="1024" transform="rotate(288 512 540.4)"/><g id="c"><use xlink:href="#a" width="1024" height="1024" transform="rotate(36 512 205.3)"/><use xlink:href="#a" width="1024" height="1024" transform="rotate(324 315 811.5)"/><use xlink:href="#a" width="1024" height="1024" transform="rotate(252 390.3 579.9)"/></g><use xlink:href="#c" width="1024" height="1024" transform="rotate(72 512 540.4)"/><use xlink:href="#c" width="1024" height="1024" transform="rotate(144 512 540.4)"/><use xlink:href="#c" width="1024" height="1024" transform="rotate(216 512 540.4)"/><use xlink:href="#c" width="1024" height="1024" transform="rotate(288 512 540.4)"/><g id="d"><use xlink:href="#b" width="1024" height="1024" transform="rotate(108 633.7 579.9)"/><use xlink:href="#b" width="1024" height="1024" transform="rotate(108 512 668.4)"/><use xlink:href="#b" width="1024" height="1024" transform="rotate(324 1027.7 -169.4)"/><use xlink:href="#b" width="1024" height="1024" transform="rotate(252 830.7 436.8)"/><use xlink:href="#a" width="1024" height="1024" transform="rotate(324 1027.7 -169.4)"/><use xlink:href="#a" width="1024" height="1024" transform="rotate(252 830.7 436.8)"/><use xlink:href="#a" width="1024" height="1024" transform="rotate(36 512 1417.7)"/><g transform="rotate(180 769.8 624.1)"><use xlink:href="#b" width="1024" height="1024"/><use xlink:href="#a" width="1024" height="1024"/></g><use xlink:href="#a" width="1024" height="1024" transform="rotate(108 709 811.5)"/><use xlink:href="#b" width="1024" height="1024" transform="rotate(36 512 1417.7)"/><use xlink:href="#b" width="1024" height="1024" transform="rotate(108 709 811.5)"/></g><use xlink:href="#d" width="1024" height="1024" transform="rotate(72 512 540.4)"/><use xlink:href="#d" width="1024" height="1024" transform="rotate(144 512 540.4)"/><use xlink:href="#d" width="1024" height="1024" transform="rotate(216 512 540.4)"/><use xlink:href="#d" width="1024" height="1024" transform="rotate(288 512 540.4)"/><g id="e"><use xlink:href="#a" width="1024" height="1024" transform="rotate(216 709 604.4)"/><use xlink:href="#a" width="1024" height="1024" transform="rotate(144 512 747.5)"/><use xlink:href="#a" width="1024" height="1024" transform="rotate(288 1027.7 372.8)"/><use xlink:href="#a" width="1024" height="1024" transform="rotate(72 193.3 979)"/><use xlink:href="#a" width="1024" height="1024" transform="rotate(216 709 811.5)"/><use xlink:href="#a" width="1024" height="1024" transform="rotate(144 709 811.5)"/><use xlink:href="#a" width="1024" height="1024" transform="rotate(144 390.3 915)"/><use xlink:href="#a" width="1024" height="1024" transform="rotate(216 905.9 540.4)"/><use xlink:href="#a" width="1024" height="1024" x="318.7" y="980.9"/><use xlink:href="#a" width="1024" height="1024" x="834.4" y="606.2"/><use xlink:href="#a" width="1024" height="1024" transform="rotate(288 1346.4 269.3)"/><use xlink:href="#a" width="1024" height="1024" transform="rotate(216 830.7 643.9)"/><use xlink:href="#a" width="1024" height="1024" transform="rotate(144 512 875.5)"/><use xlink:href="#a" width="1024" height="1024" transform="rotate(72 -3.7 1250.1)"/><use xlink:href="#b" width="1024" height="1024" transform="rotate(72 193.3 979)"/><use xlink:href="#b" width="1024" height="1024" transform="rotate(216 830.7 643.9)"/><use xlink:href="#a" width="1024" height="1024" transform="rotate(180 709 811.5)"/><use xlink:href="#b" width="1024" height="1024" transform="rotate(144 512 875.5)"/><use xlink:href="#b" width="1024" height="1024" transform="rotate(144 709 811.5)"/><use xlink:href="#b" width="1024" height="1024" x="318.7" y="980.9"/><use xlink:href="#a" width="1024" height="1024" transform="rotate(108 390.3 1043)"/><use xlink:href="#b" width="1024" height="1024" transform="rotate(288 1346.4 269.3)"/><use xlink:href="#a" width="1024" height="1024" transform="rotate(252 1027.7 579.9)"/><use xlink:href="#a" width="1024" height="1024" transform="rotate(36 -641.1 1792.3)"/><use xlink:href="#a" width="1024" height="1024" transform="rotate(324 2059 -169.4)"/><use xlink:href="#b" width="1024" height="1024" transform="rotate(288 1543.4 540.4)"/><use xlink:href="#b" width="1024" height="1024" transform="rotate(72 -3.7 1250.1)"/><use xlink:href="#b" width="1024" height="1024" x="712.7" y="980.9"/><use xlink:href="#b" width="1024" height="1024" transform="rotate(216 1027.7 707.9)"/><use xlink:href="#a" width="1024" height="1024" x="712.7" y="980.9"/></g><use xlink:href="#e" width="1024" height="1024" transform="rotate(72 512 540.4)"/><use xlink:href="#e" width="1024" height="1024" transform="rotate(144 512 540.4)"/><use xlink:href="#e" width="1024" height="1024" transform="rotate(216 512 540.4)"/><use xlink:href="#e" width="1024" height="1024" transform="rotate(288 512 540.4)"/><g id="f"><use xlink:href="#a" width="1024" height="1024" transform="matrix(.81 .59 .59 -.81 -538.54 1657.46)"/><use xlink:href="#a" width="1024" height="1024" transform="matrix(.81 -.59 -.59 -.81 96.69 2259.35)"/><use xlink:href="#a" width="1024" height="1024" transform="rotate(144 512 1082.6)"/><use xlink:href="#a" width="1024" height="1024" transform="rotate(216 830.7 979)"/><use xlink:href="#b" width="1024" height="1024" transform="rotate(216 633.7 915)"/><use xlink:href="#b" width="1024" height="1024" transform="matrix(.81 -.59 -.59 -.81 734.11 2259.35)"/><use xlink:href="#b" width="1024" height="1024" transform="rotate(72 -641.1 707.9)"/><use xlink:href="#a" width="1024" height="1024" transform="matrix(-1 0 0 1 386.59 1212.43)"/><use xlink:href="#a" width="1024" height="1024" transform="matrix(-.31 -.95 -.95 .31 471.48 1841.2)"/><use xlink:href="#b" width="1024" height="1024" transform="matrix(-.31 .95 .95 .31 793.72 1098.87)"/><use xlink:href="#a" width="1024" height="1024" x="637.4" y="1212.4"/><use xlink:href="#a" width="1024" height="1024" transform="rotate(288 1543.4 540.4)"/><use xlink:href="#a" width="1024" height="1024" transform="matrix(-.31 -.95 -.95 .31 865.42 1841.2)"/><use xlink:href="#a" width="1024" height="1024" transform="rotate(288 1346.4 811.5)"/><use xlink:href="#a" width="1024" height="1024" transform="matrix(.81 -.59 -.59 -.81 415.39 2027.78)"/><use xlink:href="#b" width="1024" height="1024" transform="matrix(.81 -.59 -.59 -.81 415.4 2027.8)"/><use xlink:href="#b" width="1024" height="1024" transform="matrix(-.31 -.95 -.95 .31 865.42 1841.2)"/><use xlink:href="#b" width="1024" height="1024" transform="rotate(288 1346.4 811.5)"/><use xlink:href="#a" width="1024" height="1024" transform="rotate(252 905.9 954.6)"/><use xlink:href="#a" width="1024" height="1024" transform="rotate(180 451.1 998.8)"/><use xlink:href="#a" width="1024" height="1024" transform="rotate(108 -3.7 1043)"/><use xlink:href="#a" width="1024" height="1024" transform="rotate(324 2377.7 811.5)"/><use xlink:href="#b" width="1024" height="1024" transform="matrix(.81 -.59 -.59 -.81 96.69 2259.35)"/><use xlink:href="#b" width="1024" height="1024" transform="matrix(.81 .59 .59 -.81 98.87 1657.44)"/><use xlink:href="#b" width="1024" height="1024" transform="matrix(.31 .95 .95 -.31 36.84 1368.83)"/><use xlink:href="#b" width="1024" height="1024" transform="rotate(108 -3.7 1043)"/><use xlink:href="#a" width="1024" height="1024" transform="rotate(252 1027.7 1043)"/><use xlink:href="#a" width="1024" height="1024" transform="rotate(180 610.5 1114.6)"/><use xlink:href="#a" width="1024" height="1024" transform="rotate(252 830.7 1186.1)"/><use xlink:href="#a" width="1024" height="1024" transform="rotate(180 413.5 1114.6)"/><use xlink:href="#b" width="1024" height="1024" transform="rotate(216 512 1082.6)"/><use xlink:href="#a" width="1024" height="1024" transform="rotate(180 291.8 1114.6)"/><use xlink:href="#a" width="1024" height="1024" transform="matrix(1 0 0 -1 440.44 2229.16)"/></g><use xlink:href="#f" width="1024" height="1024" transform="rotate(72 512 540.4)"/><use xlink:href="#f" width="1024" height="1024" transform="rotate(144 512 540.4)"/><use xlink:href="#f" width="1024" height="1024" transform="rotate(216 512 540.4)"/><use xlink:href="#f" width="1024" height="1024" transform="rotate(288 512 540.4)"/></g></svg>